<svg width="159" height="42" viewBox="0 0 159 42" fill="none" xmlns="http://www.w3.org/2000/svg">
<circle cx="16.9199" cy="21.4199" r="16.7949" fill="white"/>
<circle cx="16.9199" cy="21.4199" r="5.8782" fill="#EB223A"/>
<rect x="0.125" y="19.7404" width="33.5897" height="3.35897" fill="#EB223A"/>
<path d="M56.583 17.336C56.583 18.3253 56.3497 19.2587 55.883 20.136C55.4163 21.0133 54.6697 21.732 53.643 22.292C52.6163 22.8333 51.3003 23.104 49.695 23.104H46.167V31H42.975V11.54H49.695C51.1883 11.54 52.4483 11.8013 53.475 12.324C54.5203 12.828 55.295 13.5187 55.799 14.396C56.3217 15.2733 56.583 16.2533 56.583 17.336ZM49.695 20.5C50.9083 20.5 51.8137 20.2293 52.411 19.688C53.0083 19.128 53.307 18.344 53.307 17.336C53.307 15.208 52.103 14.144 49.695 14.144H46.167V20.5H49.695ZM66.3193 31.252C64.8633 31.252 63.5473 30.9253 62.3713 30.272C61.1953 29.6 60.2713 28.6667 59.5993 27.472C58.9273 26.2587 58.5913 24.8587 58.5913 23.272C58.5913 21.704 58.9367 20.3133 59.6273 19.1C60.318 17.8867 61.2607 16.9533 62.4553 16.3C63.65 15.6467 64.9847 15.32 66.4593 15.32C67.934 15.32 69.2687 15.6467 70.4633 16.3C71.658 16.9533 72.6007 17.8867 73.2913 19.1C73.982 20.3133 74.3273 21.704 74.3273 23.272C74.3273 24.84 73.9727 26.2307 73.2633 27.444C72.554 28.6573 71.5833 29.6 70.3513 30.272C69.138 30.9253 67.794 31.252 66.3193 31.252ZM66.3193 28.48C67.1407 28.48 67.906 28.284 68.6153 27.892C69.3433 27.5 69.9313 26.912 70.3793 26.128C70.8273 25.344 71.0513 24.392 71.0513 23.272C71.0513 22.152 70.8367 21.2093 70.4073 20.444C69.978 19.66 69.4087 19.072 68.6993 18.68C67.99 18.288 67.2247 18.092 66.4033 18.092C65.582 18.092 64.8167 18.288 64.1073 18.68C63.4167 19.072 62.866 19.66 62.4553 20.444C62.0447 21.2093 61.8393 22.152 61.8393 23.272C61.8393 24.9333 62.2593 26.2213 63.0993 27.136C63.958 28.032 65.0313 28.48 66.3193 28.48ZM83.5868 23.3L90.6988 31H86.3868L80.6748 24.364V31H77.4828V10.28H80.6748V22.32L86.2748 15.572H90.6988L83.5868 23.3ZM107.127 22.908C107.127 23.4867 107.089 24.0093 107.015 24.476H95.2267C95.3201 25.708 95.7774 26.6973 96.5987 27.444C97.4201 28.1907 98.4281 28.564 99.6227 28.564C101.34 28.564 102.553 27.8453 103.263 26.408H106.707C106.24 27.8267 105.391 28.9933 104.159 29.908C102.945 30.804 101.433 31.252 99.6227 31.252C98.1481 31.252 96.8227 30.9253 95.6467 30.272C94.4894 29.6 93.5747 28.6667 92.9027 27.472C92.2494 26.2587 91.9227 24.8587 91.9227 23.272C91.9227 21.6853 92.2401 20.2947 92.8747 19.1C93.5281 17.8867 94.4334 16.9533 95.5907 16.3C96.7667 15.6467 98.1107 15.32 99.6227 15.32C101.079 15.32 102.376 15.6373 103.515 16.272C104.653 16.9067 105.54 17.8027 106.175 18.96C106.809 20.0987 107.127 21.4147 107.127 22.908ZM103.795 21.9C103.776 20.724 103.356 19.7813 102.535 19.072C101.713 18.3627 100.696 18.008 99.4827 18.008C98.3814 18.008 97.4387 18.3627 96.6547 19.072C95.8707 19.7627 95.4041 20.7053 95.2547 21.9H103.795ZM102.423 11.428L96.2347 14.48V12.128L102.423 8.712V11.428ZM109.204 23.216C109.204 21.6667 109.521 20.2947 110.156 19.1C110.809 17.9053 111.687 16.9813 112.788 16.328C113.908 15.656 115.149 15.32 116.512 15.32C117.52 15.32 118.509 15.544 119.48 15.992C120.469 16.4213 121.253 17 121.832 17.728V10.28H125.052V31H121.832V28.676C121.309 29.4227 120.581 30.0387 119.648 30.524C118.733 31.0093 117.679 31.252 116.484 31.252C115.14 31.252 113.908 30.916 112.788 30.244C111.687 29.5533 110.809 28.6013 110.156 27.388C109.521 26.156 109.204 24.7653 109.204 23.216ZM121.832 23.272C121.832 22.208 121.608 21.284 121.16 20.5C120.731 19.716 120.161 19.1187 119.452 18.708C118.743 18.2973 117.977 18.092 117.156 18.092C116.335 18.092 115.569 18.2973 114.86 18.708C114.151 19.1 113.572 19.688 113.124 20.472C112.695 21.2373 112.48 22.152 112.48 23.216C112.48 24.28 112.695 25.2133 113.124 26.016C113.572 26.8187 114.151 27.4347 114.86 27.864C115.588 28.2747 116.353 28.48 117.156 28.48C117.977 28.48 118.743 28.2747 119.452 27.864C120.161 27.4533 120.731 26.856 121.16 26.072C121.608 25.2693 121.832 24.336 121.832 23.272ZM143.385 22.908C143.385 23.4867 143.347 24.0093 143.273 24.476H131.485C131.578 25.708 132.035 26.6973 132.857 27.444C133.678 28.1907 134.686 28.564 135.881 28.564C137.598 28.564 138.811 27.8453 139.521 26.408H142.965C142.498 27.8267 141.649 28.9933 140.417 29.908C139.203 30.804 137.691 31.252 135.881 31.252C134.406 31.252 133.081 30.9253 131.905 30.272C130.747 29.6 129.833 28.6667 129.161 27.472C128.507 26.2587 128.181 24.8587 128.181 23.272C128.181 21.6853 128.498 20.2947 129.133 19.1C129.786 17.8867 130.691 16.9533 131.849 16.3C133.025 15.6467 134.369 15.32 135.881 15.32C137.337 15.32 138.634 15.6373 139.773 16.272C140.911 16.9067 141.798 17.8027 142.433 18.96C143.067 20.0987 143.385 21.4147 143.385 22.908ZM140.053 21.9C140.034 20.724 139.614 19.7813 138.793 19.072C137.971 18.3627 136.954 18.008 135.741 18.008C134.639 18.008 133.697 18.3627 132.913 19.072C132.129 19.7627 131.662 20.7053 131.513 21.9H140.053ZM153.134 23.188L158.118 31H154.506L151.174 25.764L148.038 31H144.706L149.69 23.412L144.706 15.572H148.318L151.65 20.808L154.786 15.572H158.118L153.134 23.188Z" fill="white"/>
</svg>
